Coordinates
version=1
nRows=49
nColumns=13
inDegrees=yes

Units are S.I. units (second, meters, Newtons, ...)
If the header above contains a line with 'inDegrees', this indicates whether rotational values are in degrees (yes) or radians (no).

endheader
time	bJoint_3	seatpos	hipangle	kneeangle	footangle	lbackangle	uarmleft_out	uarmleft_trn	uarmleft_up	uarmright_out	uarmright_trn	uarmright_up
      3.49500000	      0.00000000	     -0.01046767	     88.10448745	     15.03370383	     13.13819128	    -28.39458467	     36.48652129	     14.88458532	     -0.00000000	     40.00664870	     14.85372558	      0.00000000
      3.50000000	      0.00000000	     -0.01150223	     87.60022998	     15.97914944	     13.57937942	    -27.97393069	     35.99227332	     15.32998349	     -0.00000000	     39.52433883	     15.29924659	      0.00000000
      3.50500000	      0.00000000	     -0.01209097	     87.32623830	     16.49314023	     13.81937853	    -27.55335297	     35.45123102	     15.75501705	     -0.00000000	     38.99048235	     15.72538258	      0.00000000
      3.51000000	      0.00000000	     -0.01312590	     86.86434117	     17.36006812	     14.22440929	    -27.18914923	     34.91245424	     16.17595648	     -0.00000000	     38.45810055	     16.14833997	      0.00000000
      3.51500000	      0.00000000	     -0.01422305	     86.39875030	     18.23448312	     14.63323342	    -26.81192445	     34.29175745	     16.55409018	     -0.00000000	     37.93595664	     16.58159978	      0.00000000
      3.52000000	      0.00000000	     -0.01522145	     85.99376490	     18.99552665	     14.98929155	    -26.38860212	     33.77129981	     17.00441782	     -0.00000000	     37.42861940	     17.03449811	      0.00000000
      3.52500000	      0.00000000	     -0.01622631	     85.60199451	     19.73213332	     15.33412783	    -26.02145346	     33.21555776	     17.42653943	     -0.00000000	     36.87958201	     17.46049582	      0.00000000
      3.53000000	      0.00000000	     -0.01722209	     85.22774718	     20.43615578	     15.66390296	    -25.65336975	     32.65425016	     17.84899301	     -0.00000000	     36.32510166	     17.88732420	      0.00000000
      3.53500000	      0.00000000	     -0.01825640	     84.85225881	     21.14286749	     15.99512630	    -25.21642184	     32.12452763	     18.31479116	     -0.00000000	     35.71046272	     18.29833303	      0.00000000
      3.54000000	      0.00000000	     -0.01926698	     84.49718017	     21.81149128	     16.30867145	    -24.77593763	     31.49612443	     18.72256024	     -0.00000000	     35.19230499	     18.77028374	      0.00000000
      3.54500000	      0.00000000	     -0.02112373	     83.87177034	     22.98992279	     16.86169314	    -24.48592495	     30.95877591	     19.15304823	     -0.00000000	     34.65829986	     19.20441785	      0.00000000
      3.55000000	      0.00000000	     -0.02217750	     83.53073701	     23.63292642	     17.16366343	    -24.03233623	     30.32972896	     19.57360012	     -0.00000000	     34.03594784	     19.62953943	      0.00000000
      3.55500000	      0.00000000	     -0.02310560	     83.23790143	     24.18528521	     17.42318663	    -23.60328913	     29.75818132	     20.03519593	     -0.00000000	     33.47953218	     20.09530976	      0.00000000
      3.56000000	      0.00000000	     -0.02506570	     82.64047432	     25.31283381	     17.95330813	    -23.28638314	     29.13675290	     20.42510575	     -0.00000000	     32.85864242	     20.49268769	      0.00000000
      3.56500000	      0.00000000	     -0.02635479	     82.26169284	     26.02817835	     18.28987119	    -22.89145635	     28.56894525	     20.88992035	     -0.00000000	     32.50346140	     20.92961161	      0.00000000
      3.57000000	      0.00000000	     -0.02827264	     81.71670102	     27.05803467	     18.77473569	    -22.51571331	     27.95540372	     21.31757530	     -0.00000000	     31.89909737	     21.36346237	      0.00000000
      3.57500000	      0.00000000	     -0.02921637	     81.45600474	     27.55092191	     19.00692665	    -22.07079262	     27.36148648	     21.79827536	     -0.00000000	     31.22664672	     21.78007399	      0.00000000
      3.58000000	      0.00000000	     -0.03108333	     80.95354583	     28.50136619	     19.45491202	    -21.70765036	     26.72538715	     22.21476590	     -0.00000000	     30.69601548	     22.27222432	      0.00000000
      3.58500000	      0.00000000	     -0.03329642	     80.37881005	     29.58927996	     19.96809002	    -21.36767902	     26.31088503	     22.41905290	     -0.00000000	     30.08409650	     22.70355422	      0.00000000
      3.59000000	      0.00000000	     -0.03423595	     80.14109965	     30.03947432	     20.18057397	    -20.91410758	     25.69613011	     22.91169711	     -0.00000000	     29.59406225	     23.09367182	      0.00000000
      3.59500000	      0.00000000	     -0.03613508	     79.67113933	     30.92992327	     20.60106260	    -20.53652529	     25.04736129	     23.34337948	     -0.00000000	     28.95610005	     23.53102762	      0.00000000
      3.60000000	      0.00000000	     -0.03827718	     79.15673925	     31.90518402	     21.06192327	    -20.13413186	     24.41785094	     23.81431680	     -0.00000000	     28.34464510	     24.00710700	      0.00000000
      3.60500000	      0.00000000	     -0.04015305	     78.71880769	     32.73596831	     21.45477600	    -19.76305726	     23.75096478	     24.23971083	     -0.00000000	     27.98784206	     24.47970111	      0.00000000
      3.61000000	      0.00000000	     -0.04227347	     78.23673722	     33.65101940	     21.88775662	    -19.42215252	     23.30129006	     24.44088943	     -0.00000000	     27.33633994	     24.72058190	      0.00000000
      3.61500000	      0.00000000	     -0.04416425	     77.81761258	     34.44704145	     22.26465404	    -19.04334721	     22.62470824	     24.87400563	     -0.00000000	     26.67036512	     25.16233727	      0.00000000
      3.62000000	      0.00000000	     -0.04625580	     77.36491767	     35.30729434	     22.67221201	    -18.63467950	     21.96162167	     25.35024256	     -0.00000000	     26.02606867	     25.64671798	      0.00000000
      3.62500000	      0.00000000	     -0.04815885	     76.96232774	     36.07274495	     23.03507269	    -18.24873620	     21.27107132	     25.79149930	     -0.00000000	     25.55624403	     26.06004705	      0.00000000
      3.63000000	      0.00000000	     -0.05022553	     76.53450455	     36.88659658	     23.42110113	    -17.83970806	     20.80311840	     26.05304445	     -0.00000000	     24.89358690	     26.54571619	      0.00000000
      3.63500000	      0.00000000	     -0.05214051	     76.14626312	     37.62552998	     23.77179310	    -17.44731098	     20.09839856	     26.50301974	     -0.00000000	     24.31931721	     26.69914609	      0.00000000
      3.64000000	      0.00000000	     -0.05419126	     75.73869689	     38.40163147	     24.14032836	    -17.03335597	     19.39714565	     26.98597071	     -0.00000000	     23.63999608	     27.19008518	      0.00000000
      3.64500000	      0.00000000	     -0.05624385	     75.33875865	     39.16359318	     24.50235183	    -16.67569487	     18.90099956	     27.20111570	     -0.00000000	     22.93786462	     27.62891487	      0.00000000
      3.65000000	      0.00000000	     -0.05815080	     74.97396316	     39.85893429	     24.83289744	    -16.21857493	     18.09692469	     27.62646498	     -0.00000000	     22.44961452	     28.11386173	      0.00000000
      3.65500000	      0.00000000	     -0.06116023	     74.41070024	     40.93320141	     25.34390165	    -15.89776678	     17.43867046	     28.10450040	     -0.00000000	     21.81185540	     28.42227250	      0.00000000
      3.66000000	      0.00000000	     -0.06319329	     74.03828605	     41.64389461	     25.68218065	    -15.46019570	     16.92023892	     28.40182181	     -0.00000000	     21.22292780	     28.81252166	      0.00000000
      3.66500000	      0.00000000	     -0.06512674	     73.68982728	     42.30917347	     25.99900075	    -15.06572678	     16.09049209	     28.76456751	     -0.00000000	     20.48385572	     29.27966502	      0.00000000
      3.67000000	      0.00000000	     -0.06813456	     73.15819772	     43.32472382	     26.48292154	    -14.73711122	     15.40797608	     29.07199519	     -0.00000000	     19.73401968	     29.50623353	      0.00000000
      3.67500000	      0.00000000	     -0.07014800	     72.80905770	     43.99204108	     26.80109878	    -14.30369240	     14.86098392	     29.54728679	     -0.00000000	     19.20776317	     29.98439126	      0.00000000
      3.68000000	      0.00000000	     -0.07315317	     72.29739603	     44.97051872	     27.26791475	    -13.95236657	     14.53846675	     29.54496602	     -0.00000000	     18.88481941	     29.98109599	      0.00000000
      3.68500000	      0.00000000	     -0.07515409	     71.96268190	     45.61095180	     27.57363370	    -13.52380541	     14.12852681	     29.35206029	     -0.00000000	     18.47241862	     29.96646885	      0.00000000
      3.69000000	      0.00000000	     -0.07815346	     71.46938027	     46.55531571	     28.02469599	    -13.15446990	     13.71880266	     29.27480500	     -0.00000000	     18.13807683	     29.98427485	      0.00000000
      3.69500000	      0.00000000	     -0.08114770	     70.98647952	     47.48033982	     28.46681934	    -12.81355225	     13.37897467	     29.26274699	     -0.00000000	     17.79637899	     29.79390444	      0.00000000
      3.70000000	      0.00000000	     -0.08314217	     70.66985026	     48.08716930	     28.75701956	    -12.37488666	     12.94516132	     29.26252268	     -0.00000000	     17.36222081	     29.79349567	      0.00000000
      3.70500000	      0.00000000	     -0.08613549	     70.20181582	     48.98461925	     29.18643506	    -12.00710688	     12.58831627	     29.28139347	     -0.00000000	     16.91967064	     29.71785397	      0.00000000
      3.71000000	      0.00000000	     -0.08912951	     69.74186845	     49.86708489	     29.60895334	    -11.64915088	     12.15599489	     29.01592869	     -0.00000000	     16.56050453	     29.72702361	      0.00000000
      3.71500000	      0.00000000	     -0.09213357	     69.28818897	     50.73803446	     30.02622343	    -11.25828449	     11.78250777	     29.06242037	     -0.00000000	     16.19558939	     29.59521205	      0.00000000
      3.72000000	      0.00000000	     -0.09413249	     68.99044646	     51.30990080	     30.30034725	    -10.79715650	     11.24132277	     28.81668161	     -0.00000000	     15.64201356	     29.53067825	      0.00000000
      3.72500000	     -0.00000000	     -0.09713894	     68.54858344	     52.15898082	     30.70756426	    -10.44907683	     10.86463702	     28.81837826	     -0.00000000	     15.26565279	     29.53337012	      0.00000000
      3.73000000	      0.00000000	     -0.10015800	     68.11175685	     52.99886093	     31.11061778	    -10.02578291	     10.39063415	     28.80957254	     -0.00000000	     14.78965218	     29.34706010	      0.00000000
      3.73500000	      0.00000000	     -0.10317328	     67.68204842	     53.82552126	     31.50756967	     -9.67259918	     10.00096857	     28.63884387	     -0.00000000	     14.31377078	     29.26457169	      0.00000000
